<?xml version="1.0" encoding="iso-8859-1"?>
<!-- Generator: Adobe Illustrator 19.0.0, SVG Export Plug-In . SVG Version: 6.00 Build 0)  -->
<svg version="1.1" id="Layer_1" xmlns="http://www.w3.org/2000/svg" xmlns:xlink="http://www.w3.org/1999/xlink" x="0px" y="0px" width="100" height="250"
	 viewBox="0 0 511.999 511.999" style="enable-background:new 0 0 511.999 511.999;" xml:space="preserve">
<circle style="fill:#F9C900;" cx="256.002" cy="129.793" r="68.049"/>
<path style="fill:#F9AA0C;" d="M281.518,180.83c-37.582,0-68.049-30.467-68.049-68.049c0-18.078,7.063-34.497,18.563-46.683
	c-25.753,9.696-44.081,34.551-44.081,63.695c0,37.582,30.467,68.049,68.049,68.049c19.505,0,37.079-8.218,49.487-21.366
	C298.03,179.283,289.955,180.83,281.518,180.83z"/>
<path style="fill:#836134;" d="M145.42,325.435c0-61.072,49.508-127.592,110.58-127.592s110.58,66.52,110.58,127.592
	S256,504.063,256,504.063S145.42,386.505,145.42,325.435z"/>
<path style="fill:#754F1E;" d="M187.951,342.447c0-61.072,49.508-127.592,110.58-127.592c3.634,0,7.226,0.242,10.77,0.699
	c-15.808-11.043-33.973-17.711-53.3-17.711c-61.072,0-110.58,66.521-110.58,127.592S256,504.063,256,504.063
	s5.485-5.833,14.002-15.561C237.237,449.167,187.951,383.221,187.951,342.447z"/>
<g>
	<path style="fill:#FAD433;" d="M157.154,367.965c7.713,16.604,18.504,34.201,30.139,51.037h137.411
		c11.635-16.836,22.426-34.433,30.139-51.037H157.154z"/>
	<path style="fill:#FAD433;" d="M351.822,265.892H160.177c-8.066,16.094-13.167,33.649-14.441,51.037h220.528
		C364.99,299.541,359.888,281.985,351.822,265.892z"/>
</g>
<g>
	<path style="fill:#FABB3D;" d="M157.154,367.965c7.713,16.604,18.504,34.201,30.139,51.037h31.267
		c-11.013-17.447-20.38-35.075-25.752-51.037H157.154z"/>
	<path style="fill:#FABB3D;" d="M160.177,265.892c-8.066,16.094-13.167,33.649-14.441,51.037h44.971
		c3.827-18.018,11.49-35.641,22.018-51.037H160.177z"/>
</g>
<path style="fill:#F1EDE8;" d="M256,197.843c0,0,132.54-68.049,170.123-68.049s68.049,30.467,68.049,68.049
	s-30.467,68.049-68.049,68.049S256,197.843,256,197.843z"/>
<path style="fill:#E3DCD2;" d="M434.628,240.373c-28.16,0-109.63-38.204-148.713-57.361c-17.86,8.641-29.916,14.83-29.916,14.83
	s132.54,68.049,170.123,68.049c34.755,0,63.405-26.062,67.522-59.705C481.899,226.61,459.878,240.373,434.628,240.373z"/>
<path style="fill:#F1EDE8;" d="M256,197.843c0,0-132.54-68.049-170.123-68.049s-68.049,30.467-68.049,68.049
	s30.467,68.049,68.049,68.049S256,197.843,256,197.843z"/>
<path style="fill:#E3DCD2;" d="M77.371,240.373c28.16,0,109.63-38.204,148.713-57.361c17.86,8.641,29.916,14.83,29.916,14.83
	s-132.54,68.049-170.123,68.049c-34.755,0-63.405-26.062-67.522-59.705C30.1,226.61,52.12,240.373,77.371,240.373z"/>
<path d="M281.518,103.743h1.063c4.405,0,7.975-3.569,7.975-7.974s-3.569-7.974-7.975-7.974h-1.063c-4.405,0-7.974,3.569-7.974,7.974
	S277.113,103.743,281.518,103.743z"/>
<path d="M231.545,87.794h-1.063c-4.404,0-7.975,3.569-7.975,7.974s3.57,7.974,7.975,7.974h1.063c4.404,0,7.975-3.569,7.975-7.974
	S235.949,87.794,231.545,87.794z"/>
<path d="M426.122,121.819c-7.144,0-16.977,1.971-30.061,6.023c-4.206,1.304-6.56,5.77-5.257,9.978
	c1.304,4.205,5.766,6.56,9.978,5.257c14.164-4.388,21.598-5.309,25.341-5.309c33.125,0,60.075,26.95,60.075,60.075
	s-26.95,60.075-60.075,60.075c-26.038,0-108.854-38.445-152.38-60.059c19.031-9.43,54.338-26.493,87.129-40.011
	c4.071-1.678,6.012-6.339,4.333-10.412c-1.677-4.072-6.336-6.013-10.411-4.333c-8.925,3.679-18.03,7.615-26.947,11.59
	c2.75-7.936,4.178-16.322,4.178-24.9c0-24.448-11.613-46.222-29.598-60.139l17.752-42.857c3.655-8.826,14.076-13.158,22.923-9.495
	c8.937,3.702,13.196,13.985,9.495,22.923c-1.686,4.069,0.246,8.734,4.316,10.419c4.067,1.69,8.734-0.246,10.419-4.316
	c7.066-17.062-1.063-36.693-18.125-43.76c-8.263-3.424-17.367-3.425-25.634-0.001c-8.265,3.424-14.702,9.861-18.125,18.127
	l-16.765,40.471c-9.906-4.737-20.988-7.395-32.68-7.395c-11.693,0-22.774,2.658-32.679,7.395l-16.763-40.47
	c-3.424-8.265-9.861-14.703-18.127-18.127c-8.266-3.424-17.368-3.423-25.634,0.001c-8.266,3.424-14.703,9.86-18.127,18.126
	c-3.424,8.265-3.424,17.37,0,25.634c1.685,4.069,6.351,6,10.419,4.316c4.069-1.685,6.001-6.35,4.316-10.419
	c-3.665-8.847,0.67-19.267,9.495-22.923c8.846-3.666,19.267,0.671,22.922,9.495l17.751,42.857
	c-17.985,13.916-29.597,35.691-29.597,60.138c0,8.528,1.412,16.876,4.136,24.78c-37.498-16.691-78.668-32.755-98.235-32.755
	c-41.919,0-76.024,34.104-76.024,76.024s34.104,76.024,76.024,76.024c15.2,0,43.442-9.698,72.87-21.85
	c-13.556,22.66-21.301,48.812-21.301,73.419c0,15.409,6.258,34.975,18.602,58.154c2.204,4.138,7.675,5.479,11.548,2.829
	c3.417-2.337,4.358-6.88,2.45-10.48h171.926c-5.724,10.759-12.889,22.484-21.46,35.088H191.496
	c-1.002-1.474-1.999-2.951-2.982-4.432c-2.437-3.669-7.385-4.668-11.055-2.231c-3.668,2.437-4.667,7.385-2.23,11.054
	c32.217,48.501,74.538,93.657,74.961,94.108c3.103,3.298,8.515,3.299,11.617,0c4.604-4.894,112.746-120.59,112.746-184.093
	c0-24.62-7.742-50.759-21.298-73.416c29.426,12.151,57.666,21.848,72.867,21.848c41.919,0,76.024-34.104,76.024-76.024
	S468.04,121.819,426.122,121.819z M206.511,163.862c-6.926-10.038-10.587-21.819-10.587-34.068c0-33.125,26.95-60.075,60.075-60.075
	s60.075,26.95,60.075,60.075c0,12.441-3.768,24.375-10.895,34.511c-0.23,0.326-0.421,0.666-0.594,1.011
	c-22.391,10.453-40.998,19.75-48.574,23.577c-8.397-4.267-26.789-13.49-48.793-23.771
	C207.02,164.689,206.791,164.266,206.511,163.862z M25.802,197.843c0-33.125,26.95-60.075,60.075-60.075
	c26.046,0,108.895,38.465,152.412,60.075c-43.514,21.611-126.36,60.075-152.412,60.075
	C52.751,257.917,25.802,230.968,25.802,197.843z M357.346,308.954H154.654c1.774-11.83,5.381-23.75,10.565-35.088h181.564
	C351.968,285.201,355.574,297.121,357.346,308.954z M256,492.25c-10.195-11.309-32.223-36.471-53.255-65.275h106.507
	c-1.397,1.914-2.811,3.837-4.265,5.785C285.361,459.057,265.523,481.69,256,492.25z M349.705,359.997
	c-0.047,0-0.091-0.006-0.138-0.006H162.432c-0.038,0-0.074,0.005-0.112,0.005c-5.92-13.667-8.926-25.256-8.926-34.561
	c0-0.176,0.006-0.354,0.006-0.532h205.197c0.001,0.178,0.006,0.355,0.006,0.532C358.605,334.786,355.591,346.397,349.705,359.997z
	 M326.68,242.191c4.205,4.933,8.049,10.208,11.506,15.726h-164.37c3.398-5.427,7.17-10.619,11.293-15.479
	c0.62-0.73,1.076-1.543,1.39-2.392c30.71-13.747,58.565-27.692,69.501-33.249c10.919,5.549,38.7,19.458,69.35,33.182
	C325.664,240.762,326.102,241.512,326.68,242.191z"/>
<g>
</g>
<g>
</g>
<g>
</g>
<g>
</g>
<g>
</g>
<g>
</g>
<g>
</g>
<g>
</g>
<g>
</g>
<g>
</g>
<g>
</g>
<g>
</g>
<g>
</g>
<g>
</g>
<g>
</g>
</svg>
